<?xml version="1.0" encoding="UTF-8" standalone="no"?>
<!-- Created with Inkscape (http://www.inkscape.org/) -->

<svg
   xmlns:dc="http://purl.org/dc/elements/1.1/"
   xmlns:cc="http://creativecommons.org/ns#"
   xmlns:rdf="http://www.w3.org/1999/02/22-rdf-syntax-ns#"
   xmlns:svg="http://www.w3.org/2000/svg"
   xmlns="http://www.w3.org/2000/svg"
   xmlns:sodipodi="http://sodipodi.sourceforge.net/DTD/sodipodi-0.dtd"
   xmlns:inkscape="http://www.inkscape.org/namespaces/inkscape"
   width="84.35305"
   height="39.625"
   id="svg2"
   version="1.1"
   inkscape:version="0.48.3.1 r9886"
   sodipodi:docname="kaari-logo.svg">
  <defs
     id="defs4" />
  <sodipodi:namedview
     id="base"
     pagecolor="#ffffff"
     bordercolor="#666666"
     borderopacity="1.0"
     inkscape:pageopacity="0.0"
     inkscape:pageshadow="2"
     inkscape:zoom="5.0104792"
     inkscape:cx="54.783434"
     inkscape:cy="-9.3352221"
     inkscape:document-units="px"
     inkscape:current-layer="g4818"
     showgrid="false"
     inkscape:window-width="1231"
     inkscape:window-height="776"
     inkscape:window-x="49"
     inkscape:window-y="24"
     inkscape:window-maximized="1"
     fit-margin-left="2"
     fit-margin-top="2"
     fit-margin-right="2"
     fit-margin-bottom="2"
     showborder="false"
     inkscape:showpageshadow="true">
    <inkscape:grid
       type="xygrid"
       id="grid3551"
       empspacing="5"
       visible="true"
       enabled="true"
       snapvisiblegridlinesonly="true"
       originx="-94.524232px"
       originy="-950.36372px" />
  </sodipodi:namedview>
  <metadata
     id="metadata7">
    <rdf:RDF>
      <cc:Work
         rdf:about="">
        <dc:format>image/svg+xml</dc:format>
        <dc:type
           rdf:resource="http://purl.org/dc/dcmitype/StillImage" />
        <dc:title />
      </cc:Work>
    </rdf:RDF>
  </metadata>
  <g
     inkscape:label="Layer 1"
     inkscape:groupmode="layer"
     id="layer1"
     transform="translate(-94.524232,-62.373465)">
    <g
       id="layer1-5"
       inkscape:label="Taso 1"
       transform="matrix(0.42375833,0,0,0.39640274,141.90178,227.3956)">
      <text
         sodipodi:linespacing="125%"
         id="text60579"
         y="755.37732"
         x="362.64474"
         style="font-size:40px;font-style:normal;font-weight:normal;line-height:125%;letter-spacing:0px;word-spacing:0px;fill:#000000;fill-opacity:1;stroke:none;font-family:Sans"
         xml:space="preserve"><tspan
           y="755.37732"
           x="362.64474"
           id="tspan60581"
           sodipodi:role="line" /></text>
      <flowRoot
         style="font-size:40px;font-style:normal;font-weight:normal;line-height:125%;letter-spacing:0px;word-spacing:0px;fill:#000000;fill-opacity:1;stroke:none;font-family:Sans"
         id="flowRoot60602"
         xml:space="preserve"><flowRegion
           id="flowRegion60604"><rect
             y="523.79987"
             x="267.4379"
             height="74.498749"
             width="275.01404"
             id="rect60606" /></flowRegion><flowPara
           id="flowPara60608" /></flowRoot>      <flowRoot
         style="font-size:40px;font-style:normal;font-weight:normal;line-height:125%;letter-spacing:0px;word-spacing:0px;fill:#000000;fill-opacity:1;stroke:none;font-family:Sans"
         id="flowRoot60742"
         xml:space="preserve"><flowRegion
           id="flowRegion60744"><rect
             y="646.64789"
             x="-152.14285"
             height="225.71428"
             width="380"
             id="rect60746" /></flowRegion><flowPara
           id="flowPara60748" /></flowRoot>      <flowRoot
         style="font-size:40px;font-style:normal;font-weight:normal;line-height:125%;letter-spacing:0px;word-spacing:0px;fill:#000000;fill-opacity:1;stroke:none;font-family:Sans"
         id="flowRoot60778"
         xml:space="preserve"><flowRegion
           id="flowRegion60780"><rect
             y="579.61078"
             x="-268.70059"
             height="535.38086"
             width="585.88849"
             id="rect60782" /></flowRegion><flowPara
           id="flowPara60784" /></flowRoot>      <text
         sodipodi:linespacing="125%"
         id="text60835"
         y="940.93359"
         x="487.14285"
         style="font-size:40px;font-style:normal;font-weight:normal;line-height:125%;letter-spacing:0px;word-spacing:0px;fill:#000000;fill-opacity:1;stroke:none;font-family:Sans"
         xml:space="preserve"><tspan
           y="940.93359"
           x="487.14285"
           id="tspan60837"
           sodipodi:role="line" /></text>
      <g
         id="flowRoot60591-80-1"
         style="font-size:40px;font-style:normal;font-variant:normal;font-weight:normal;font-stretch:normal;line-height:125%;letter-spacing:33.80708313px;word-spacing:0px;fill:#000000;fill-opacity:1;stroke:none;font-family:Levenim MT;-inkscape-font-specification:Levenim MT"
         transform="matrix(0.69554056,0,0,2.9979215,657.83893,-2303.2561)">
        <g
           id="g4818">
          <g
             id="g3020">
            <g
               id="flowRoot60591-80"
               style="font-size:40px;font-style:normal;font-variant:normal;font-weight:normal;font-stretch:normal;line-height:125%;letter-spacing:33.80708313px;word-spacing:0px;fill:#000000;fill-opacity:1;stroke:none;font-family:Levenim MT;-inkscape-font-specification:Levenim MT"
               transform="matrix(0.47386353,0,0,0.10951765,-1188.2117,556.69115)">
              <path
                 id="path60974-2"
                 d="m 301.1875,916.95877 c -2e-5,2.17449 -0.82033,4.01693 -2.46094,5.52735 -1.58855,1.47135 -3.48308,2.20703 -5.68359,2.20703 -3.56772,0 -6.45834,-2.02474 -8.67188,-6.07422 l 2.44141,-1.46484 c 1.71875,3.16406 3.70442,4.74609 5.95703,4.74609 2.13541,0 3.68488,-0.82682 4.64844,-2.48047 0.44269,-0.7552 0.66405,-1.55598 0.66406,-2.40234 -10e-6,-0.96354 -0.32553,-1.90754 -0.97656,-2.83203 -0.84637,-1.21093 -2.42189,-2.67577 -4.72656,-4.39453 -2.35678,-1.74478 -3.91277,-3.12499 -4.66797,-4.14063 -1.01563,-1.36717 -1.52344,-2.83201 -1.52344,-4.39453 0,-2.65623 1.14583,-4.60935 3.4375,-5.85938 1.08072,-0.5859 2.25911,-0.87887 3.53516,-0.8789 2.73436,3e-5 5.24738,1.56904 7.53906,4.70703 l -2.34375,1.77734 c -0.87241,-1.14581 -1.6146,-1.95961 -2.22656,-2.4414 -0.91147,-0.71612 -1.92059,-1.0742 -3.02735,-1.07422 -1.10678,2e-5 -2.03125,0.33206 -2.77344,0.99609 -0.78125,0.67711 -1.17188,1.56253 -1.17187,2.65625 -10e-6,1.28909 0.60546,2.53257 1.81641,3.73047 0.35155,0.33856 1.58853,1.29559 3.71093,2.87109 1.95312,1.44533 3.41145,2.74741 4.375,3.90625 1.41926,1.73179 2.12889,3.50262 2.12891,5.3125 z"
                 inkscape:connector-curvature="0" />
              <path
                 id="path60976-4"
                 d="m 370.07271,909.59549 c -3e-5,4.23178 -1.45511,7.806 -4.36524,10.72266 -2.91018,2.91667 -6.48114,4.375 -10.71289,4.375 -4.23178,0 -7.81902,-1.4388 -10.76172,-4.31641 -2.94271,-2.87759 -4.41406,-6.42577 -4.41406,-10.64453 0,-2.73436 0.65755,-5.27993 1.97266,-7.63672 1.3151,-2.35674 3.14452,-4.21872 5.48828,-5.58593 2.30467,-1.3281 4.79816,-1.99216 7.48047,-1.99219 4.32289,3e-5 7.94919,1.42581 10.8789,4.27734 2.9557,2.89065 4.43357,6.49091 4.4336,10.80078 z m -2.96875,0 c -3e-5,-4.73956 -2.02477,-8.27471 -6.07422,-10.60547 -1.92711,-1.10674 -3.97137,-1.66012 -6.13281,-1.66015 -2.14846,3e-5 -4.16668,0.55341 -6.05469,1.66015 -1.88803,1.1068 -3.36589,2.59768 -4.43359,4.47266 -1.06772,1.87502 -1.60157,3.96486 -1.60157,6.26953 0,3.39845 1.16536,6.27605 3.4961,8.63281 2.33071,2.35678 5.1953,3.53516 8.59375,3.53516 2.21352,0 4.26755,-0.53385 6.16211,-1.60156 1.8945,-1.06771 3.37562,-2.54557 4.44336,-4.4336 1.06767,-1.88801 1.60153,-3.97785 1.60156,-6.26953 z"
                 inkscape:connector-curvature="0" />
              <path
                 id="path60978-8"
                 d="m 423.56729,923.97049 -13.92578,0 0,-28.73047 2.89063,0 0,25.95704 11.03515,0 z"
                 inkscape:connector-curvature="0" />
              <path
                 id="path60980-0"
                 d="m 481.08531,912.58377 c -2e-5,2.44793 -0.19533,4.34897 -0.58594,5.70313 -0.55991,1.88802 -1.60483,3.42774 -3.13476,4.61914 -1.52997,1.19141 -3.36265,1.78711 -5.49805,1.78711 -2.16147,0 -4.06251,-0.49479 -5.70312,-1.48438 -1.77084,-1.08072 -2.96225,-2.60416 -3.57422,-4.57031 -0.35157,-1.1328 -0.52735,-3.15103 -0.52735,-6.05469 l 0,-17.34375 2.8711,0 0,17.34375 c -1e-5,1.9922 0.039,3.27475 0.11719,3.84766 0.29947,2.23959 1.43228,3.82162 3.39843,4.74609 1.08072,0.52084 2.16796,0.78126 3.26172,0.78125 2.03124,1e-5 3.67186,-0.76171 4.92188,-2.28515 0.58592,-0.71614 1.0156,-1.58203 1.28906,-2.59766 0.19529,-0.72916 0.29295,-2.22655 0.29297,-4.49219 l 0,-17.34375 2.87109,0 z"
                 inkscape:connector-curvature="0" />
              <path
                 id="path60982-1"
                 d="m 534.85333,898.03299 -6.40625,0 0,25.9375 -2.92968,0 0,-25.9375 -6.42579,0 0,-2.79297 15.76172,0 z"
                 inkscape:connector-curvature="0" />
              <path
                 id="path60984-7"
                 d="m 575.24243,923.97049 -2.87109,0 0,-28.73047 2.87109,0 z"
                 inkscape:connector-curvature="0" />
              <path
                 id="path60986-0"
                 d="m 644.655,909.59549 c -3e-5,4.23178 -1.45511,7.806 -4.36524,10.72266 -2.91018,2.91667 -6.48114,4.375 -10.71289,4.375 -4.23178,0 -7.81902,-1.4388 -10.76171,-4.31641 -2.94272,-2.87759 -4.41407,-6.42577 -4.41407,-10.64453 0,-2.73436 0.65755,-5.27993 1.97266,-7.63672 1.3151,-2.35674 3.14452,-4.21872 5.48828,-5.58593 2.30468,-1.3281 4.79816,-1.99216 7.48047,-1.99219 4.32289,3e-5 7.94919,1.42581 10.87891,4.27734 2.95569,2.89065 4.43356,6.49091 4.43359,10.80078 z m -2.96875,0 c -3e-5,-4.73956 -2.02477,-8.27471 -6.07422,-10.60547 -1.9271,-1.10674 -3.97137,-1.66012 -6.13281,-1.66015 -2.14846,3e-5 -4.16668,0.55341 -6.05469,1.66015 -1.88803,1.1068 -3.36589,2.59768 -4.43359,4.47266 -1.06772,1.87502 -1.60157,3.96486 -1.60157,6.26953 0,3.39845 1.16536,6.27605 3.4961,8.63281 2.33072,2.35678 5.1953,3.53516 8.59375,3.53516 2.21352,0 4.26755,-0.53385 6.16211,-1.60156 1.8945,-1.06771 3.37562,-2.54557 4.44336,-4.4336 1.06768,-1.88801 1.60153,-3.97785 1.60156,-6.26953 z"
                 inkscape:connector-curvature="0" />
              <path
                 id="path60988-7"
                 d="m 706.80194,923.97049 -0.64453,0 -18.94531,-21.71875 0,21.71875 -2.96875,0 0,-28.73047 0.625,0 19.10156,21.99219 0,-21.99219 2.83203,0 z"
                 inkscape:connector-curvature="0" />
              <path
                 id="path60990-8"
                 d="m 761.48792,916.95877 c -2e-5,2.17449 -0.82033,4.01693 -2.46094,5.52735 -1.58856,1.47135 -3.48309,2.20703 -5.6836,2.20703 -3.56771,0 -6.45833,-2.02474 -8.67187,-6.07422 l 2.44141,-1.46484 c 1.71874,3.16406 3.70442,4.74609 5.95703,4.74609 2.1354,0 3.68488,-0.82682 4.64843,-2.48047 0.4427,-0.7552 0.66405,-1.55598 0.66407,-2.40234 -2e-5,-0.96354 -0.32554,-1.90754 -0.97657,-2.83203 -0.84636,-1.21093 -2.42188,-2.67577 -4.72656,-4.39453 -2.35678,-1.74478 -3.91276,-3.12499 -4.66797,-4.14063 -1.01563,-1.36717 -1.52344,-2.83201 -1.52343,-4.39453 -10e-6,-2.65623 1.14582,-4.60935 3.4375,-5.85938 1.08072,-0.5859 2.2591,-0.87887 3.53515,-0.8789 2.73436,3e-5 5.24738,1.56904 7.53906,4.70703 l -2.34375,1.77734 c -0.87241,-1.14581 -1.61459,-1.95961 -2.22656,-2.4414 -0.91147,-0.71612 -1.92058,-1.0742 -3.02734,-1.07422 -1.10678,2e-5 -2.03126,0.33206 -2.77344,0.99609 -0.78126,0.67711 -1.17188,1.56253 -1.17187,2.65625 -10e-6,1.28909 0.60546,2.53257 1.8164,3.73047 0.35156,0.33856 1.58853,1.29559 3.71094,2.87109 1.95311,1.44533 3.41144,2.74741 4.375,3.90625 1.41925,1.73179 2.12889,3.50262 2.12891,5.3125 z"
                 inkscape:connector-curvature="0" />
            </g>
            <text
               xml:space="preserve"
               style="font-size:66.25054169px;font-style:normal;font-weight:normal;line-height:125%;letter-spacing:0px;word-spacing:0px;fill:#000000;fill-opacity:1;stroke:none;font-family:Sans"
               x="-499.88458"
               y="1385.3159"
               id="text3482"
               sodipodi:linespacing="125%"
               transform="scale(2.124837,0.47062434)"><tspan
                 sodipodi:role="line"
                 id="tspan3484"
                 x="-499.88458"
                 y="1385.3159"
                 style="font-size:46.37538147px;font-style:normal;font-variant:normal;font-weight:normal;font-stretch:normal;font-family:Sans;-inkscape-font-specification:Sans">kaari</tspan></text>
            <text
               xml:space="preserve"
               style="font-size:67.58669280999998819px;font-style:normal;font-weight:normal;line-height:125%;letter-spacing:0px;word-spacing:0px;fill:#12a5f4;fill-opacity:1;stroke:none;font-family:Sans"
               x="-553.1048"
               y="1318.5259"
               id="text3486"
               sodipodi:linespacing="125%"
               transform="scale(2.0079741,0.4980144)"><tspan
                 sodipodi:role="line"
                 id="tspan3488"
                 x="-553.1048"
                 y="1318.5259">)</tspan></text>
          </g>
        </g>
      </g>
    </g>
    <flowRoot
       xml:space="preserve"
       id="flowRoot3363"
       style="font-size:40px;font-style:normal;font-weight:normal;line-height:125%;letter-spacing:0px;word-spacing:0px;fill:#000000;fill-opacity:1;stroke:none;font-family:Sans"><flowRegion
         id="flowRegion3365"><rect
           id="rect3367"
           width="0"
           height="59.076187"
           x="665.80457"
           y="352.22955" /></flowRegion><flowPara
         id="flowPara3369" /></flowRoot>  </g>
</svg>
